<svg xmlns="http://www.w3.org/2000/svg" width="1400" height="700" viewBox="0 0 1400 700">
  <defs>
    <linearGradient id="g" x1="0" y1="0" x2="1" y2="1">
      <stop offset="0" stop-color="#0b0f17"/>
      <stop offset="1" stop-color="#070a11"/>
    </linearGradient>
    <filter id="blur" x="-20%" y="-20%" width="140%" height="140%">
      <feGaussianBlur stdDeviation="18"/>
    </filter>
  </defs>
  <rect width="1400" height="700" fill="url(#g)"/>
  <g filter="url(#blur)">
    <circle cx="287" cy="248" r="25" fill="#7c5cff" opacity="0.1458321620509646"/><circle cx="915" cy="188" r="111" fill="#2ee59d" opacity="0.07688288885014549"/><circle cx="1334" cy="353" r="123" fill="#7c5cff" opacity="0.1845371315714124"/><circle cx="474" cy="275" r="28" fill="#2ee59d" opacity="0.10472325739752317"/><circle cx="1231" cy="183" r="92" fill="#7c5cff" opacity="0.15593645157395286"/><circle cx="880" cy="49" r="95" fill="#2ee59d" opacity="0.1833914339764759"/><circle cx="1207" cy="270" r="61" fill="#7c5cff" opacity="0.11901260544820572"/><circle cx="369" cy="114" r="96" fill="#2ee59d" opacity="0.13431795069067512"/><circle cx="1159" cy="62" r="111" fill="#7c5cff" opacity="0.1057007274458218"/><circle cx="685" cy="264" r="45" fill="#2ee59d" opacity="0.19394038345698228"/><circle cx="639" cy="666" r="87" fill="#7c5cff" opacity="0.07991127460549491"/><circle cx="554" cy="683" r="110" fill="#2ee59d" opacity="0.0859039717947495"/><circle cx="100" cy="350" r="90" fill="#7c5cff" opacity="0.18617147508648788"/><circle cx="858" cy="257" r="86" fill="#2ee59d" opacity="0.09979849154072723"/><circle cx="838" cy="406" r="106" fill="#7c5cff" opacity="0.18942518240440562"/><circle cx="378" cy="314" r="94" fill="#2ee59d" opacity="0.11232898619480355"/><circle cx="1193" cy="25" r="60" fill="#7c5cff" opacity="0.1405745803072216"/><circle cx="1149" cy="556" r="89" fill="#2ee59d" opacity="0.12068605785113934"/>
  </g>
  <rect x="0" y="0" width="1400" height="700" fill="rgba(255,255,255,0.02)"/>
</svg>