<svg xmlns="http://www.w3.org/2000/svg" width="1400" height="700" viewBox="0 0 1400 700">
  <defs>
    <linearGradient id="g" x1="0" y1="0" x2="1" y2="1">
      <stop offset="0" stop-color="#0b0f17"/>
      <stop offset="1" stop-color="#070a11"/>
    </linearGradient>
    <filter id="blur" x="-20%" y="-20%" width="140%" height="140%">
      <feGaussianBlur stdDeviation="18"/>
    </filter>
  </defs>
  <rect width="1400" height="700" fill="url(#g)"/>
  <g filter="url(#blur)">
    <circle cx="593" cy="85" r="24" fill="#7c5cff" opacity="0.14288381176400294"/><circle cx="867" cy="388" r="89" fill="#2ee59d" opacity="0.11013117818714985"/><circle cx="393" cy="273" r="78" fill="#7c5cff" opacity="0.06197063528705748"/><circle cx="1270" cy="465" r="137" fill="#2ee59d" opacity="0.06346737544853959"/><circle cx="175" cy="510" r="75" fill="#7c5cff" opacity="0.06274113783068022"/><circle cx="1285" cy="441" r="67" fill="#2ee59d" opacity="0.1679084006552222"/><circle cx="421" cy="36" r="97" fill="#7c5cff" opacity="0.11167479091963006"/><circle cx="352" cy="635" r="49" fill="#2ee59d" opacity="0.195902931861054"/><circle cx="742" cy="579" r="119" fill="#7c5cff" opacity="0.18042012029599946"/><circle cx="1171" cy="288" r="106" fill="#2ee59d" opacity="0.196447565883508"/><circle cx="1173" cy="87" r="126" fill="#7c5cff" opacity="0.1263692991798255"/><circle cx="989" cy="604" r="123" fill="#2ee59d" opacity="0.12264321829826681"/><circle cx="1315" cy="167" r="45" fill="#7c5cff" opacity="0.1718608037009507"/><circle cx="1092" cy="331" r="108" fill="#2ee59d" opacity="0.17422228897220982"/><circle cx="400" cy="596" r="36" fill="#7c5cff" opacity="0.07152579898986657"/><circle cx="872" cy="39" r="94" fill="#2ee59d" opacity="0.09857902461002133"/><circle cx="1173" cy="287" r="127" fill="#7c5cff" opacity="0.14259486158425122"/><circle cx="223" cy="378" r="137" fill="#2ee59d" opacity="0.10038780537174546"/>
  </g>
  <rect x="0" y="0" width="1400" height="700" fill="rgba(255,255,255,0.02)"/>
</svg>