<svg xmlns="http://www.w3.org/2000/svg" width="900" height="675" viewBox="0 0 900 675">
  <defs>
    <linearGradient id="bg" x1="0" y1="0" x2="0" y2="1">
      <stop offset="0" stop-color="#0f1624"/>
      <stop offset="1" stop-color="#0b0f17"/>
    </linearGradient>
    <filter id="blur" x="-20%" y="-20%" width="140%" height="140%">
      <feGaussianBlur stdDeviation="10"/>
    </filter>
  </defs>
  <rect width="900" height="675" fill="url(#bg)"/>
  <g filter="url(#blur)">
    <rect x="645" y="76" width="189" height="163" rx="16" fill="#7c5cff" opacity="0.10060982321395018"/><rect x="563" y="481" width="151" height="81" rx="18" fill="#2ee59d" opacity="0.13206693596399244"/><rect x="395" y="98" width="143" height="132" rx="18" fill="#7c5cff" opacity="0.12203962002706605"/><rect x="202" y="368" width="170" height="137" rx="42" fill="#2ee59d" opacity="0.10836182179067151"/><rect x="328" y="293" width="124" height="117" rx="39" fill="#7c5cff" opacity="0.09329781447122128"/><rect x="305" y="285" width="176" height="51" rx="16" fill="#2ee59d" opacity="0.1035653930410538"/><rect x="259" y="215" width="217" height="133" rx="31" fill="#7c5cff" opacity="0.11143638049564507"/><rect x="622" y="290" width="191" height="160" rx="20" fill="#2ee59d" opacity="0.14529777317087816"/><rect x="392" y="492" width="208" height="80" rx="30" fill="#7c5cff" opacity="0.17697836444740755"/>
  </g>
  <g>
    <rect x="70" y="70" width="340" height="500" rx="52" fill="rgba(255,255,255,0.04)" stroke="rgba(255,255,255,0.10)"/>
    <rect x="120" y="120" width="240" height="400" rx="48" fill="rgba(124,92,255,0.12)" stroke="rgba(124,92,255,0.25)"/>
    <rect x="190" y="160" width="100" height="320" rx="40" fill="rgba(46,229,157,0.16)" stroke="rgba(46,229,157,0.25)"/>
    <circle cx="240" cy="210" r="16" fill="rgba(255,255,255,0.22)"/>
  </g>
  <g>
    <text x="460" y="240" fill="#e7eefc" font-size="44" font-family="ui-sans-serif, system-ui, -apple-system, Segoe UI, Roboto, Helvetica, Arial" font-weight="800">Nova Pod Kit</text>
    <text x="460" y="290" fill="#a9b6d3" font-size="22" font-family="ui-sans-serif, system-ui, -apple-system, Segoe UI, Roboto, Helvetica, Arial">Starter kits</text>
    <text x="460" y="360" fill="#2ee59d" font-size="34" font-family="ui-sans-serif, system-ui, -apple-system, Segoe UI, Roboto, Helvetica, Arial" font-weight="800">$39.00</text>
    <text x="460" y="410" fill="rgba(169,182,211,0.9)" font-size="18" font-family="ui-sans-serif, system-ui, -apple-system, Segoe UI, Roboto, Helvetica, Arial">High-quality, modern product card image (placeholder).</text>
  </g>
</svg>