<svg xmlns="http://www.w3.org/2000/svg" width="900" height="675" viewBox="0 0 900 675">
  <defs>
    <linearGradient id="bg" x1="0" y1="0" x2="0" y2="1">
      <stop offset="0" stop-color="#0f1624"/>
      <stop offset="1" stop-color="#0b0f17"/>
    </linearGradient>
    <filter id="blur" x="-20%" y="-20%" width="140%" height="140%">
      <feGaussianBlur stdDeviation="10"/>
    </filter>
  </defs>
  <rect width="900" height="675" fill="url(#bg)"/>
  <g filter="url(#blur)">
    <rect x="523" y="346" width="199" height="155" rx="48" fill="#7c5cff" opacity="0.16550456359042587"/><rect x="254" y="154" width="211" height="161" rx="27" fill="#2ee59d" opacity="0.08941234562292184"/><rect x="370" y="132" width="103" height="50" rx="41" fill="#7c5cff" opacity="0.17647577811255666"/><rect x="729" y="438" width="120" height="43" rx="49" fill="#2ee59d" opacity="0.08631649200584822"/><rect x="96" y="157" width="141" height="47" rx="45" fill="#7c5cff" opacity="0.11262933525482648"/><rect x="665" y="491" width="130" height="99" rx="34" fill="#2ee59d" opacity="0.12997731522067915"/><rect x="738" y="103" width="197" height="111" rx="42" fill="#7c5cff" opacity="0.17976562004630842"/><rect x="145" y="422" width="145" height="120" rx="30" fill="#2ee59d" opacity="0.13128846413570638"/><rect x="90" y="95" width="107" height="142" rx="22" fill="#7c5cff" opacity="0.16465836218811786"/>
  </g>
  <g>
    <rect x="70" y="70" width="340" height="500" rx="52" fill="rgba(255,255,255,0.04)" stroke="rgba(255,255,255,0.10)"/>
    <rect x="120" y="120" width="240" height="400" rx="48" fill="rgba(124,92,255,0.12)" stroke="rgba(124,92,255,0.25)"/>
    <rect x="190" y="160" width="100" height="320" rx="40" fill="rgba(46,229,157,0.16)" stroke="rgba(46,229,157,0.25)"/>
    <circle cx="240" cy="210" r="16" fill="rgba(255,255,255,0.22)"/>
  </g>
  <g>
    <text x="460" y="240" fill="#e7eefc" font-size="44" font-family="ui-sans-serif, system-ui, -apple-system, Segoe UI, Roboto, Helvetica, Arial" font-weight="800">Aero Battery Pro</text>
    <text x="460" y="290" fill="#a9b6d3" font-size="22" font-family="ui-sans-serif, system-ui, -apple-system, Segoe UI, Roboto, Helvetica, Arial">Batteries</text>
    <text x="460" y="360" fill="#2ee59d" font-size="34" font-family="ui-sans-serif, system-ui, -apple-system, Segoe UI, Roboto, Helvetica, Arial" font-weight="800">$24.00</text>
    <text x="460" y="410" fill="rgba(169,182,211,0.9)" font-size="18" font-family="ui-sans-serif, system-ui, -apple-system, Segoe UI, Roboto, Helvetica, Arial">High-quality, modern product card image (placeholder).</text>
  </g>
</svg>