<svg xmlns="http://www.w3.org/2000/svg" width="900" height="675" viewBox="0 0 900 675">
  <defs>
    <linearGradient id="bg" x1="0" y1="0" x2="0" y2="1">
      <stop offset="0" stop-color="#0f1624"/>
      <stop offset="1" stop-color="#0b0f17"/>
    </linearGradient>
    <filter id="blur" x="-20%" y="-20%" width="140%" height="140%">
      <feGaussianBlur stdDeviation="10"/>
    </filter>
  </defs>
  <rect width="900" height="675" fill="url(#bg)"/>
  <g filter="url(#blur)">
    <rect x="545" y="197" width="215" height="129" rx="25" fill="#7c5cff" opacity="0.11816410229419204"/><rect x="443" y="307" width="150" height="157" rx="30" fill="#2ee59d" opacity="0.1358190047753348"/><rect x="737" y="379" width="117" height="152" rx="39" fill="#7c5cff" opacity="0.09622673223888886"/><rect x="275" y="90" width="131" height="59" rx="48" fill="#2ee59d" opacity="0.14869455040935417"/><rect x="405" y="408" width="183" height="62" rx="17" fill="#7c5cff" opacity="0.17189067114948084"/><rect x="737" y="320" width="137" height="63" rx="43" fill="#2ee59d" opacity="0.17467130187432706"/><rect x="175" y="398" width="188" height="74" rx="50" fill="#7c5cff" opacity="0.11125406941922682"/><rect x="696" y="345" width="121" height="53" rx="26" fill="#2ee59d" opacity="0.13072476701117874"/><rect x="145" y="265" width="187" height="160" rx="46" fill="#7c5cff" opacity="0.1409296399240057"/>
  </g>
  <g>
    <rect x="70" y="70" width="340" height="500" rx="52" fill="rgba(255,255,255,0.04)" stroke="rgba(255,255,255,0.10)"/>
    <rect x="120" y="120" width="240" height="400" rx="48" fill="rgba(124,92,255,0.12)" stroke="rgba(124,92,255,0.25)"/>
    <rect x="190" y="160" width="100" height="320" rx="40" fill="rgba(46,229,157,0.16)" stroke="rgba(46,229,157,0.25)"/>
    <circle cx="240" cy="210" r="16" fill="rgba(255,255,255,0.22)"/>
  </g>
  <g>
    <text x="460" y="240" fill="#e7eefc" font-size="44" font-family="ui-sans-serif, system-ui, -apple-system, Segoe UI, Roboto, Helvetica, Arial" font-weight="800">Ceramic Cartridge</text>
    <text x="460" y="290" fill="#a9b6d3" font-size="22" font-family="ui-sans-serif, system-ui, -apple-system, Segoe UI, Roboto, Helvetica, Arial">Cartridges</text>
    <text x="460" y="360" fill="#2ee59d" font-size="34" font-family="ui-sans-serif, system-ui, -apple-system, Segoe UI, Roboto, Helvetica, Arial" font-weight="800">$12.00</text>
    <text x="460" y="410" fill="rgba(169,182,211,0.9)" font-size="18" font-family="ui-sans-serif, system-ui, -apple-system, Segoe UI, Roboto, Helvetica, Arial">High-quality, modern product card image (placeholder).</text>
  </g>
</svg>