<svg xmlns="http://www.w3.org/2000/svg" width="900" height="675" viewBox="0 0 900 675">
  <defs>
    <linearGradient id="bg" x1="0" y1="0" x2="0" y2="1">
      <stop offset="0" stop-color="#0f1624"/>
      <stop offset="1" stop-color="#0b0f17"/>
    </linearGradient>
    <filter id="blur" x="-20%" y="-20%" width="140%" height="140%">
      <feGaussianBlur stdDeviation="10"/>
    </filter>
  </defs>
  <rect width="900" height="675" fill="url(#bg)"/>
  <g filter="url(#blur)">
    <rect x="325" y="208" width="127" height="99" rx="25" fill="#7c5cff" opacity="0.16692309575167516"/><rect x="716" y="435" width="127" height="73" rx="20" fill="#2ee59d" opacity="0.1331314751847018"/><rect x="279" y="441" width="155" height="47" rx="43" fill="#7c5cff" opacity="0.09262966754857935"/><rect x="683" y="67" width="150" height="77" rx="21" fill="#2ee59d" opacity="0.16712847291984398"/><rect x="328" y="483" width="195" height="151" rx="24" fill="#7c5cff" opacity="0.1593770550765207"/><rect x="322" y="242" width="139" height="164" rx="43" fill="#2ee59d" opacity="0.1470728328557332"/><rect x="500" y="386" width="160" height="70" rx="38" fill="#7c5cff" opacity="0.16196436434587475"/><rect x="708" y="194" width="194" height="74" rx="44" fill="#2ee59d" opacity="0.1476821565098681"/><rect x="514" y="334" width="125" height="115" rx="28" fill="#7c5cff" opacity="0.09794119590721524"/>
  </g>
  <g>
    <rect x="70" y="70" width="340" height="500" rx="52" fill="rgba(255,255,255,0.04)" stroke="rgba(255,255,255,0.10)"/>
    <rect x="120" y="120" width="240" height="400" rx="48" fill="rgba(124,92,255,0.12)" stroke="rgba(124,92,255,0.25)"/>
    <rect x="190" y="160" width="100" height="320" rx="40" fill="rgba(46,229,157,0.16)" stroke="rgba(46,229,157,0.25)"/>
    <circle cx="240" cy="210" r="16" fill="rgba(255,255,255,0.22)"/>
  </g>
  <g>
    <text x="460" y="240" fill="#e7eefc" font-size="44" font-family="ui-sans-serif, system-ui, -apple-system, Segoe UI, Roboto, Helvetica, Arial" font-weight="800">Magnetic Charger</text>
    <text x="460" y="290" fill="#a9b6d3" font-size="22" font-family="ui-sans-serif, system-ui, -apple-system, Segoe UI, Roboto, Helvetica, Arial">Accessories</text>
    <text x="460" y="360" fill="#2ee59d" font-size="34" font-family="ui-sans-serif, system-ui, -apple-system, Segoe UI, Roboto, Helvetica, Arial" font-weight="800">$9.00</text>
    <text x="460" y="410" fill="rgba(169,182,211,0.9)" font-size="18" font-family="ui-sans-serif, system-ui, -apple-system, Segoe UI, Roboto, Helvetica, Arial">High-quality, modern product card image (placeholder).</text>
  </g>
</svg>