<svg xmlns="http://www.w3.org/2000/svg" width="900" height="675" viewBox="0 0 900 675">
  <defs>
    <linearGradient id="bg" x1="0" y1="0" x2="0" y2="1">
      <stop offset="0" stop-color="#0f1624"/>
      <stop offset="1" stop-color="#0b0f17"/>
    </linearGradient>
    <filter id="blur" x="-20%" y="-20%" width="140%" height="140%">
      <feGaussianBlur stdDeviation="10"/>
    </filter>
  </defs>
  <rect width="900" height="675" fill="url(#bg)"/>
  <g filter="url(#blur)">
    <rect x="169" y="375" width="214" height="103" rx="33" fill="#7c5cff" opacity="0.15351318318827117"/><rect x="358" y="435" width="98" height="155" rx="35" fill="#2ee59d" opacity="0.12666183492856703"/><rect x="466" y="261" width="110" height="107" rx="30" fill="#7c5cff" opacity="0.1670813890557461"/><rect x="383" y="243" width="146" height="132" rx="49" fill="#2ee59d" opacity="0.09497035560090131"/><rect x="624" y="400" width="150" height="82" rx="16" fill="#7c5cff" opacity="0.1451698291822797"/><rect x="185" y="364" width="166" height="47" rx="21" fill="#2ee59d" opacity="0.10740546554656452"/><rect x="451" y="266" width="192" height="64" rx="23" fill="#7c5cff" opacity="0.1378780439414711"/><rect x="712" y="384" width="173" height="86" rx="22" fill="#2ee59d" opacity="0.1547003748080089"/><rect x="558" y="323" width="129" height="109" rx="44" fill="#7c5cff" opacity="0.14241171525283747"/>
  </g>
  <g>
    <rect x="70" y="70" width="340" height="500" rx="52" fill="rgba(255,255,255,0.04)" stroke="rgba(255,255,255,0.10)"/>
    <rect x="120" y="120" width="240" height="400" rx="48" fill="rgba(124,92,255,0.12)" stroke="rgba(124,92,255,0.25)"/>
    <rect x="190" y="160" width="100" height="320" rx="40" fill="rgba(46,229,157,0.16)" stroke="rgba(46,229,157,0.25)"/>
    <circle cx="240" cy="210" r="16" fill="rgba(255,255,255,0.22)"/>
  </g>
  <g>
    <text x="460" y="240" fill="#e7eefc" font-size="44" font-family="ui-sans-serif, system-ui, -apple-system, Segoe UI, Roboto, Helvetica, Arial" font-weight="800">Pocket Case</text>
    <text x="460" y="290" fill="#a9b6d3" font-size="22" font-family="ui-sans-serif, system-ui, -apple-system, Segoe UI, Roboto, Helvetica, Arial">Storage</text>
    <text x="460" y="360" fill="#2ee59d" font-size="34" font-family="ui-sans-serif, system-ui, -apple-system, Segoe UI, Roboto, Helvetica, Arial" font-weight="800">$15.00</text>
    <text x="460" y="410" fill="rgba(169,182,211,0.9)" font-size="18" font-family="ui-sans-serif, system-ui, -apple-system, Segoe UI, Roboto, Helvetica, Arial">High-quality, modern product card image (placeholder).</text>
  </g>
</svg>