<svg xmlns="http://www.w3.org/2000/svg" width="900" height="675" viewBox="0 0 900 675">
  <defs>
    <linearGradient id="bg" x1="0" y1="0" x2="0" y2="1">
      <stop offset="0" stop-color="#0f1624"/>
      <stop offset="1" stop-color="#0b0f17"/>
    </linearGradient>
    <filter id="blur" x="-20%" y="-20%" width="140%" height="140%">
      <feGaussianBlur stdDeviation="10"/>
    </filter>
  </defs>
  <rect width="900" height="675" fill="url(#bg)"/>
  <g filter="url(#blur)">
    <rect x="273" y="65" width="213" height="49" rx="26" fill="#7c5cff" opacity="0.1713013845580365"/><rect x="304" y="68" width="94" height="77" rx="39" fill="#2ee59d" opacity="0.10397151821637886"/><rect x="406" y="298" width="171" height="111" rx="41" fill="#7c5cff" opacity="0.10633142571474608"/><rect x="294" y="499" width="132" height="130" rx="36" fill="#2ee59d" opacity="0.10233912073495871"/><rect x="583" y="275" width="139" height="156" rx="42" fill="#7c5cff" opacity="0.12896213716191"/><rect x="532" y="349" width="172" height="152" rx="36" fill="#2ee59d" opacity="0.17302173681112062"/><rect x="721" y="290" width="183" height="56" rx="47" fill="#7c5cff" opacity="0.17592109914498388"/><rect x="79" y="160" width="115" height="84" rx="17" fill="#2ee59d" opacity="0.10866171414404038"/><rect x="566" y="137" width="105" height="69" rx="41" fill="#7c5cff" opacity="0.0847416166019353"/>
  </g>
  <g>
    <rect x="70" y="70" width="340" height="500" rx="52" fill="rgba(255,255,255,0.04)" stroke="rgba(255,255,255,0.10)"/>
    <rect x="120" y="120" width="240" height="400" rx="48" fill="rgba(124,92,255,0.12)" stroke="rgba(124,92,255,0.25)"/>
    <rect x="190" y="160" width="100" height="320" rx="40" fill="rgba(46,229,157,0.16)" stroke="rgba(46,229,157,0.25)"/>
    <circle cx="240" cy="210" r="16" fill="rgba(255,255,255,0.22)"/>
  </g>
  <g>
    <text x="460" y="240" fill="#e7eefc" font-size="44" font-family="ui-sans-serif, system-ui, -apple-system, Segoe UI, Roboto, Helvetica, Arial" font-weight="800">Glass Tip</text>
    <text x="460" y="290" fill="#a9b6d3" font-size="22" font-family="ui-sans-serif, system-ui, -apple-system, Segoe UI, Roboto, Helvetica, Arial">Mouthpieces</text>
    <text x="460" y="360" fill="#2ee59d" font-size="34" font-family="ui-sans-serif, system-ui, -apple-system, Segoe UI, Roboto, Helvetica, Arial" font-weight="800">$8.00</text>
    <text x="460" y="410" fill="rgba(169,182,211,0.9)" font-size="18" font-family="ui-sans-serif, system-ui, -apple-system, Segoe UI, Roboto, Helvetica, Arial">High-quality, modern product card image (placeholder).</text>
  </g>
</svg>