<svg xmlns="http://www.w3.org/2000/svg" width="900" height="675" viewBox="0 0 900 675">
  <defs>
    <linearGradient id="bg" x1="0" y1="0" x2="0" y2="1">
      <stop offset="0" stop-color="#0f1624"/>
      <stop offset="1" stop-color="#0b0f17"/>
    </linearGradient>
    <filter id="blur" x="-20%" y="-20%" width="140%" height="140%">
      <feGaussianBlur stdDeviation="10"/>
    </filter>
  </defs>
  <rect width="900" height="675" fill="url(#bg)"/>
  <g filter="url(#blur)">
    <rect x="430" y="300" width="203" height="112" rx="42" fill="#7c5cff" opacity="0.10266446832325998"/><rect x="65" y="269" width="146" height="100" rx="30" fill="#2ee59d" opacity="0.0810128373627345"/><rect x="369" y="477" width="165" height="76" rx="35" fill="#7c5cff" opacity="0.08221817477736025"/><rect x="285" y="368" width="144" height="45" rx="25" fill="#2ee59d" opacity="0.16076368242952832"/><rect x="706" y="74" width="198" height="156" rx="34" fill="#7c5cff" opacity="0.1785429914476987"/><rect x="377" y="245" width="146" height="147" rx="21" fill="#2ee59d" opacity="0.11477805442682862"/><rect x="493" y="324" width="124" height="115" rx="18" fill="#7c5cff" opacity="0.10827987966975895"/><rect x="145" y="486" width="81" height="135" rx="31" fill="#2ee59d" opacity="0.12898865010925337"/><rect x="376" y="215" width="161" height="157" rx="45" fill="#7c5cff" opacity="0.08657319513280397"/>
  </g>
  <g>
    <rect x="70" y="70" width="340" height="500" rx="52" fill="rgba(255,255,255,0.04)" stroke="rgba(255,255,255,0.10)"/>
    <rect x="120" y="120" width="240" height="400" rx="48" fill="rgba(124,92,255,0.12)" stroke="rgba(124,92,255,0.25)"/>
    <rect x="190" y="160" width="100" height="320" rx="40" fill="rgba(46,229,157,0.16)" stroke="rgba(46,229,157,0.25)"/>
    <circle cx="240" cy="210" r="16" fill="rgba(255,255,255,0.22)"/>
  </g>
  <g>
    <text x="460" y="240" fill="#e7eefc" font-size="44" font-family="ui-sans-serif, system-ui, -apple-system, Segoe UI, Roboto, Helvetica, Arial" font-weight="800">Traveler Bundle</text>
    <text x="460" y="290" fill="#a9b6d3" font-size="22" font-family="ui-sans-serif, system-ui, -apple-system, Segoe UI, Roboto, Helvetica, Arial">Bundles</text>
    <text x="460" y="360" fill="#2ee59d" font-size="34" font-family="ui-sans-serif, system-ui, -apple-system, Segoe UI, Roboto, Helvetica, Arial" font-weight="800">$59.00</text>
    <text x="460" y="410" fill="rgba(169,182,211,0.9)" font-size="18" font-family="ui-sans-serif, system-ui, -apple-system, Segoe UI, Roboto, Helvetica, Arial">High-quality, modern product card image (placeholder).</text>
  </g>
</svg>